<svg width="24" height="24" viewBox="0 0 24 24" fill="none" xmlns="http://www.w3.org/2000/svg">
<path d="M11.625 1.45264L3.5625 7.45264C3.46875 7.54639 3.28125 7.73389 3.1875 7.92139C3.09375 8.10889 3.09375 8.57764 3.09375 8.57764V18.6089M15.8438 3.15625L7.78125 9.25C7.6875 9.34375 7.5 9.53125 7.40625 9.71875C7.3125 9.90625 7.3125 10.2812 7.3125 10.2812V20.4062M12.375 22.3918L20.3438 16.673C20.5127 16.5366 20.6618 16.4041 20.7556 16.2166C20.8493 16.0291 20.9062 15.8293 20.9062 15.6418V5.70425C20.9062 5.51675 20.8125 5.32925 20.625 5.2355C20.4375 5.14175 20.25 5.14175 20.0625 5.2355L12 11.048C11.8415 11.1557 11.6743 11.3061 11.5806 11.4936C11.4868 11.6811 11.4375 11.8918 11.4375 12.0793V22.0168C11.4375 22.2043 11.5312 22.3918 11.7188 22.4855C12 22.5793 12.1875 22.5793 12.375 22.3918Z" stroke="black" stroke-width="2" stroke-miterlimit="10" stroke-linecap="round" stroke-linejoin="round"/>
</svg>
