<svg width="24" height="24" viewBox="0 0 24 24" fill="none" xmlns="http://www.w3.org/2000/svg">
<path d="M12.4028 1.18505C12.137 1.13038 11.8628 1.13038 11.597 1.18505C11.2897 1.24824 11.0151 1.40207 10.7967 1.52436L10.7372 1.55761C10.0832 1.92097 9.26128 2.37768 8.40026 2.85619L17.3631 7.83555L19.6922 6.52544C20.0996 6.29625 20.3033 6.18166 20.3708 6.03136C20.4296 5.90033 20.4292 5.75034 20.3697 5.61961C20.3015 5.46965 20.0974 5.35619 19.6892 5.12926C18.0078 4.19466 15.0255 2.53701 13.2626 1.55761L13.203 1.52436C12.9847 1.40207 12.7101 1.24824 12.4028 1.18505Z" fill="black"/>
<path d="M15.3168 8.98661L6.34156 4.00039C5.58183 4.42265 4.87334 4.81647 4.31057 5.12928C3.90233 5.3562 3.69821 5.46967 3.62999 5.61962C3.57053 5.75035 3.57015 5.90034 3.62895 6.03137C3.6964 6.18167 3.90012 6.29627 4.30757 6.52545L11.6076 10.6318C11.7507 10.7122 11.8222 10.7525 11.8981 10.7683C11.9652 10.7822 12.0345 10.7822 12.1016 10.7683C12.1775 10.7525 12.249 10.7122 12.3921 10.6318L15.3168 8.98661Z" fill="black"/>
<path d="M21.9958 8.89013C21.9954 8.4418 21.9952 8.21764 21.9007 8.08675C21.8182 7.97256 21.6914 7.89845 21.5514 7.88267C21.3909 7.86457 21.1952 7.97469 20.8036 8.19493L13.4077 12.3552C13.2592 12.4387 13.185 12.4805 13.1309 12.5395C13.0831 12.5918 13.047 12.6536 13.0249 12.7209C12.9999 12.7969 12.9999 12.8821 12.9999 13.0524V21.2277C12.9999 21.6749 12.9999 21.8985 13.0939 22.0293C13.1759 22.1434 13.3022 22.2177 13.4418 22.234C13.6018 22.2527 13.7966 22.1445 14.1864 21.9281C15.8527 21.0028 18.8814 19.321 20.6626 18.3314L20.7257 18.2966C20.9568 18.1693 21.2475 18.0092 21.4706 17.767C21.6636 17.5576 21.8096 17.3095 21.8989 17.0391C22.0022 16.7264 22.001 16.3946 22.0001 16.1308L21.9999 16.0586C21.9999 14.0956 21.9973 10.7563 21.9958 8.89013Z" fill="black"/>
<path d="M10.558 22.234C10.398 22.2527 10.2031 22.1445 9.81339 21.9281C8.14703 21.0028 5.1184 19.321 3.33721 18.3314L3.27404 18.2966C3.04291 18.1692 2.75231 18.0092 2.52915 17.767C2.3362 17.5576 2.19018 17.3095 2.10085 17.0391C1.99753 16.7264 1.99874 16.3946 1.9997 16.1308L1.99988 16.0586C1.99988 14.0956 2.00242 10.7563 2.00398 8.89017C2.00436 8.44183 2.00454 8.21766 2.09908 8.08677C2.18156 7.97259 2.3084 7.89848 2.44837 7.88269C2.60881 7.8646 2.80458 7.97472 3.19611 8.19496L10.5921 12.3552C10.7405 12.4387 10.8148 12.4805 10.8688 12.5396C10.9166 12.5918 10.9528 12.6536 10.9749 12.7209C10.9999 12.797 10.9999 12.8821 10.9999 13.0525V21.2277C10.9999 21.6749 10.9999 21.8985 10.9059 22.0293C10.8238 22.1434 10.6975 22.2177 10.558 22.234Z" fill="black"/>
</svg>
