<svg width="24" height="24" viewBox="0 0 24 24" fill="none" xmlns="http://www.w3.org/2000/svg">
<path d="M18.2148 9.99991L18.2154 15M5.8577 9.00003L5.85742 14M13.5 6.00003L9.5 6.00003M6 9.00003C4.34315 9.00003 3 7.65689 3 6.00003C3 4.34318 4.34315 3.00003 6 3.00003C7.65685 3.00003 9 4.34318 9 6.00003C9 7.65689 7.65685 9.00003 6 9.00003ZM9.00045 19.4V16.6C9.00045 16.0399 9.00045 15.7599 8.89146 15.546C8.79559 15.3578 8.64261 15.2048 8.45444 15.109C8.24053 15 7.96051 15 7.40045 15H4.60045C4.0404 15 3.76037 15 3.54646 15.109C3.3583 15.2048 3.20532 15.3578 3.10945 15.546C3.00045 15.7599 3.00045 16.0399 3.00045 16.6L3.00045 19.4C3.00045 19.96 3.00045 20.24 3.10945 20.454C3.20532 20.6421 3.3583 20.7951 3.54646 20.891C3.76037 21 4.0404 21 4.60045 21H7.40045C7.96051 21 8.24053 21 8.45444 20.891C8.64261 20.7951 8.79559 20.6421 8.89146 20.454C9.00045 20.24 9.00045 19.96 9.00045 19.4ZM19.1314 9.11133L21.1113 7.13143C21.5073 6.73541 21.7053 6.5374 21.7795 6.30907C21.8447 6.10823 21.8447 5.89188 21.7795 5.69104C21.7053 5.46271 21.5073 5.2647 21.1113 4.86869L19.1314 2.88879C18.7354 2.49277 18.5373 2.29476 18.309 2.22057C18.1082 2.15532 17.8918 2.15532 17.691 2.22057C17.4627 2.29476 17.2646 2.49277 16.8686 2.88879L14.8887 4.86869C14.4927 5.2647 14.2947 5.46271 14.2205 5.69104C14.1553 5.89188 14.1553 6.10823 14.2205 6.30907C14.2947 6.5374 14.4927 6.73541 14.8887 7.13143L16.8686 9.11133C17.2646 9.50734 17.4627 9.70535 17.691 9.77954C17.8918 9.8448 18.1082 9.8448 18.309 9.77954C18.5373 9.70535 18.7354 9.50734 19.1314 9.11133ZM18 21C16.3431 21 15 19.6569 15 18C15 16.3432 16.3431 15 18 15C19.6569 15 21 16.3432 21 18C21 19.6569 19.6569 21 18 21Z" stroke="black" stroke-width="2" stroke-linecap="round" stroke-linejoin="round"/>
</svg>
