<svg width="24" height="24" viewBox="0 0 24 24" fill="none" xmlns="http://www.w3.org/2000/svg">
<path d="M21 18L15 18M15 18L18 15M15 18L18 21M4.6 3H8.4C8.96005 3 9.24008 3 9.45399 3.10899C9.64215 3.20487 9.79513 3.35785 9.89101 3.54601C10 3.75992 10 4.03995 10 4.6V8.4C10 8.96005 10 9.24008 9.89101 9.45399C9.79513 9.64215 9.64215 9.79513 9.45399 9.89101C9.24008 10 8.96005 10 8.4 10H4.6C4.03995 10 3.75992 10 3.54601 9.89101C3.35785 9.79513 3.20487 9.64215 3.10899 9.45399C3 9.24008 3 8.96005 3 8.4V4.6C3 4.03995 3 3.75992 3.10899 3.54601C3.20487 3.35785 3.35785 3.20487 3.54601 3.10899C3.75992 3 4.03995 3 4.6 3ZM15.6 3H19.4C19.9601 3 20.2401 3 20.454 3.10899C20.6422 3.20487 20.7951 3.35785 20.891 3.54601C21 3.75992 21 4.03995 21 4.6V8.4C21 8.96005 21 9.24008 20.891 9.45399C20.7951 9.64215 20.6422 9.79513 20.454 9.89101C20.2401 10 19.9601 10 19.4 10H15.6C15.0399 10 14.7599 10 14.546 9.89101C14.3578 9.79513 14.2049 9.64215 14.109 9.45399C14 9.24008 14 8.96005 14 8.4V4.6C14 4.03995 14 3.75992 14.109 3.54601C14.2049 3.35785 14.3578 3.20487 14.546 3.10899C14.7599 3 15.0399 3 15.6 3ZM4.6 14H8.4C8.96005 14 9.24008 14 9.45399 14.109C9.64215 14.2049 9.79513 14.3578 9.89101 14.546C10 14.7599 10 15.0399 10 15.6V19.4C10 19.9601 10 20.2401 9.89101 20.454C9.79513 20.6422 9.64215 20.7951 9.45399 20.891C9.24008 21 8.96005 21 8.4 21H4.6C4.03995 21 3.75992 21 3.54601 20.891C3.35785 20.7951 3.20487 20.6422 3.10899 20.454C3 20.2401 3 19.9601 3 19.4V15.6C3 15.0399 3 14.7599 3.10899 14.546C3.20487 14.3578 3.35785 14.2049 3.54601 14.109C3.75992 14 4.03995 14 4.6 14Z" stroke="black" stroke-width="2" stroke-linecap="round" stroke-linejoin="round"/>
</svg>
