<svg width="24" height="24" viewBox="0 0 24 24" fill="none" xmlns="http://www.w3.org/2000/svg">
<path fill-rule="evenodd" clip-rule="evenodd" d="M8.78584 14.5C10.9285 14.5005 13.0712 14.5005 15.2138 14.5C15.9405 14.4998 16.4357 14.4997 16.8681 14.576C18.9381 14.941 20.5589 16.5617 20.9239 18.6318C21.0001 19.0642 21 19.5593 20.9998 20.286C20.9998 20.4444 21.0047 20.6038 20.977 20.7605C20.8675 21.3815 20.3813 21.8677 19.7603 21.9772C19.6241 22.0012 19.4807 22.0005 19.4093 22.0001C14.4702 21.9736 9.5295 21.9736 4.59035 22.0001C4.51899 22.0005 4.37553 22.0012 4.23936 21.9772C3.61834 21.8677 3.13213 21.3815 3.02262 20.7605C2.995 20.6038 2.99985 20.4444 2.99982 20.286C2.99966 19.5593 2.99955 19.0642 3.0758 18.6318C3.4408 16.5617 5.06153 14.941 7.13159 14.576C7.564 14.4997 8.05917 14.4998 8.78584 14.5Z" fill="black"/>
<path fill-rule="evenodd" clip-rule="evenodd" d="M6.49983 7.5C6.49983 4.46243 8.96227 2 11.9998 2C15.0374 2 17.4998 4.46243 17.4998 7.5C17.4998 10.5376 15.0374 13 11.9998 13C8.96227 13 6.49983 10.5376 6.49983 7.5Z" fill="black"/>
</svg>
